<?xml version="1.0" encoding="UTF-8" standalone="no"?>
<!-- Created with Inkscape (http://www.inkscape.org/) -->

<svg
   width="48"
   height="48"
   viewBox="0 0 48 48"
   version="1.1"
   id="svg5"
   inkscape:version="1.3.2 (091e20e, 2023-11-25)"
   sodipodi:docname="bible.svg"
   xmlns:inkscape="http://www.inkscape.org/namespaces/inkscape"
   xmlns:sodipodi="http://sodipodi.sourceforge.net/DTD/sodipodi-0.dtd"
   xmlns="http://www.w3.org/2000/svg"
   xmlns:svg="http://www.w3.org/2000/svg">
  <sodipodi:namedview
     id="namedview7"
     pagecolor="#ffffff"
     bordercolor="#000000"
     borderopacity="0.25"
     inkscape:showpageshadow="2"
     inkscape:pageopacity="0.0"
     inkscape:pagecheckerboard="0"
     inkscape:deskcolor="#d1d1d1"
     inkscape:document-units="px"
     showgrid="false"
     inkscape:zoom="14.914651"
     inkscape:cx="16.82909"
     inkscape:cy="24.539629"
     inkscape:window-width="1854"
     inkscape:window-height="1011"
     inkscape:window-x="0"
     inkscape:window-y="0"
     inkscape:window-maximized="1"
     inkscape:current-layer="layer1" />
  <defs
     id="defs2" />
  <g
     inkscape:label="Layer 1"
     inkscape:groupmode="layer"
     id="layer1">
    <path
       id="rect115"
       style="stroke-width:0"
       d="m 14.939565,7.0641217 h 19.048207 c 1.999123,0 3.608525,1.6094021 3.608525,3.6085253 V 37.78059 c 0,1.999123 -1.609402,3.608525 -3.608525,3.608525 H 14.939565 c -1.999123,0 -3.608525,-1.609402 -3.608525,-3.608525 V 10.672647 c 0,-1.9991232 1.609402,-3.6085253 3.608525,-3.6085253 z" />
    <rect
       style="fill:#f2f2f2;stroke-width:0"
       id="rect327"
       width="3.9978213"
       height="25.145054"
       x="22.722685"
       y="12.151467"
       ry="1.9043077" />
    <rect
       style="fill:#f2f2f2;stroke-width:0"
       id="rect329"
       width="17.323893"
       height="3.3884931"
       x="16.274584"
       y="19.302242"
       ry="1.6942465" />
    <path
       d="m 12.547119,10.71174 h 3.818318 l 7.504968,25.209688 q 0.206903,0.733715 0.921666,0.733715 0.714756,0 0.940469,-0.733715 L 33.237512,10.71174 h 3.818315 l -7.82473,26.33848 q -0.451426,1.429803 -1.674039,2.351651 -1.203806,0.921846 -2.764987,0.921846 -1.561188,0 -2.783803,-0.921846 -1.222611,-0.94066 -1.636421,-2.351651 z"
       id="path1132"
       style="font-size:37.3333px;font-family:Belgium;-inkscape-font-specification:'Belgium, Normal';opacity:0.81;fill:#008000;stroke-width:0" />
  </g>
</svg>
